/* XPM */
static char * smtpguard_config_domaincontrol_xpm[] = {
"16 16 2 1",
" 	c None",
".	c #3D6DFF",
"                ",
" ... ... .....  ",
" .   . . . . .  ",
" .   . . .   .  ",
" ... ... .   .  ",
"                ",
" .  . ... ...   ",
" .. . ..   .    ",
" . .. .    .    ",
" .  . ...  .    ",
"                ",
" ... ... ...    ",
" . . . . .      ",
" . . ..  . .    ",
" ... . . ...    ",
"                "};
