/* XPM */
static char * smtpguard_config_ip_xpm[] = {
"16 16 29 1",
" 	c None",
".	c #840000",
"+	c #DCDCDC",
"@	c #D4D4D4",
"#	c #CCCCCC",
"$	c #C4C4C4",
"%	c #BCBCBC",
"&	c #B4B4B4",
"*	c #D6D6D6",
"=	c #CECECE",
"-	c #C6C6C6",
";	c #BEBEBE",
">	c #B6B6B6",
",	c #AFAFAF",
"'	c #D1D1D1",
")	c #C9C9C9",
"!	c #C1C1C1",
"~	c #B9B9B9",
"{	c #B1B1B1",
"]	c #A9A9A9",
"^	c #CBCBCB",
"/	c #C3C3C3",
"(	c #BBBBBB",
"_	c #B3B3B3",
":	c #ABABAB",
"<	c #A3A3A3",
"[	c #00AF2E",
"}	c #FF0000",
"|	c #FFFFFF",
"                ",
"                ",
"                ",
"    ........    ",
"    .+@#$%&.    ",
"    .*=-;>,.    ",
"    .')!~{].    ",
"    .^/(_:<.    ",
"    ........    ",
"      .[..}   } ",
"    ..[[..}} }} ",
" [ ..[[||||}}}  ",
" [[.[[.....}}}  ",
"  [[[     }} }} ",
"   [      }   } ",
"                "};
