/* XPM */
static char * smtpguard_config_domain_xpm[] = {
"16 16 4 1",
" 	c None",
".	c #3D6DFF",
"+	c #00AF2E",
"@	c #FF0000",
"                ",
" ... ... .....  ",
" .   . . . . .  ",
" .   . . .   .  ",
" ... ... .   .  ",
"                ",
" .  . ... ...   ",
" .. . ..   .    ",
" . .. .    .    ",
" .  . .+. @.  @ ",
"      ++  @@ @@ ",
" +.. ++. ..@@@  ",
" ++.++ . . @@@  ",
" .+++..  .@@ @@ ",
" ..+ . . .@.  @ ",
"                "};
