/* XPM */
static char * x_unknown_unknown_xpm[] = {
"16 16 4 1",
" 	c None",
".	c #7C90FF",
"+	c #0022FF",
"@	c #001C8E",
"                ",
"                ",
"                ",
"                ",
"     ....       ",
"    .++++@      ",
"   .++++++@     ",
"   .++++++@     ",
"   .++++++@     ",
"   .++++++@     ",
"    .++++@      ",
"     @@@@       ",
"                ",
"                ",
"                ",
"                "};
