/* XPM */
static char * system_smtpguard_config_xpm[] = {
"16 16 3 1",
" 	c None",
".	c #595959",
"+	c #000000",
"                ",
"                ",
"                ",
"                ",
"    .           ",
"    .       .   ",
"   .++     .    ",
"  .+++.....     ",
"    ++++++++    ",
"     +++++++    ",
"     +     +    ",
"     +     +    ",
"                ",
"                ",
"                ",
"                "};
